# xmcd CD database file
#
# Track frame offsets:
#	750
#	23612
#	51987
#	68874
#	93699
#	112728
#	139714
#	163625
#	202832
#	223902
#	264828
#	298817
#	314179
#	343169
#
# Disc length: 4583 seconds
#
# Revision: 1
# Processed by: cddbd v1.4PL0 Copyright (c) Steve Scherf et al.
# Submitted via: CDex 1.50beta10
#
DISCID=d711dd0e
DTITLE=Yul Anderson - The Wind Starlight
DYEAR=2002
DGENRE=Jazz
TTITLE0=Starlight
TTITLE1=Liquid Solo
TTITLE2=Morning Star
TTITLE3=Dream Wind
TTITLE4=Change
TTITLE5=Watchtower
TTITLE6=Eyes Of Music
TTITLE7=Mosiac Blue
TTITLE8=Twinkling Sky
TTITLE9=Twilight Solo
TTITLE10=Blue
TTITLE11=Starlight
TTITLE12=Yesterday
TTITLE13=The Data Track (I don't think its a song)
EXTD=YEAR: 2002
EXTT0=
EXTT1=
EXTT2=
EXTT3=
EXTT4=
EXTT5=
EXTT6=
EXTT7=
EXTT8=
EXTT9=
EXTT10=
EXTT11=
EXTT12=
EXTT13=
PLAYORDER=
